<?xml version="1.0" encoding="UTF-8"?>
<svg id="Camada_1" xmlns="http://www.w3.org/2000/svg" version="1.1" viewBox="0 0 24 15.2">
  <!-- Generator: Adobe Illustrator 30.0.0, SVG Export Plug-In . SVG Version: 2.1.1 Build 123)  -->
  <path d="M2.2,12.6c0-1.2.2-1.8.2-2.9s-.5-1.2-2.4-1.3v-1.8c1.8,0,2.4-.7,2.4-1.3,0-1.1-.2-1.6-.2-2.9C2.2.6,3.2,0,5.5,0h1.5v1.6h-.7c-1.3,0-1.6.2-1.6,1.1s0,1.7,0,2.7-.5,1.9-1.8,2.1h0c1.3.3,1.8.8,1.8,2.2s0,1.9,0,2.7.3,1.1,1.6,1.1h.7v1.6h-1.5c-2.3,0-3.3-.6-3.3-2.6Z"/>
  <path d="M6,3.1h3.3l.4,4.2c.1,1,.2,2,.3,3h0c.1-1,.2-2.1.4-3l.4-2.6h2.3l.4,2.6c.2,1,.3,2,.5,3h0c.1-1,.1-2,.2-3l.3-4.2h3.2l-1.3,10h-4l-.3-2.7c-.1-.9-.2-1.9-.3-3h0c0,.7-.1,1.5-.3,3l-.3,2.7h-3.9l-1.4-10Z"/>
  <path d="M17.1,13.6h.7c1.3,0,1.6-.2,1.6-1.1s0-1.7,0-2.7.5-1.9,1.8-2.1h0c-1.3-.3-1.8-.8-1.8-2.2s0-1.9,0-2.7-.3-1.1-1.6-1.1h-.7V0h1.5C20.8,0,21.8.6,21.8,2.6s-.2,1.8-.2,2.9.5,1.2,2.4,1.3v1.8c-1.9,0-2.4.7-2.4,1.3,0,1.1.2,1.6.2,2.9,0,1.9-1,2.6-3.3,2.6h-1.5v-1.6Z"/>
</svg>